Coordinates
version=1
nRows=14
nColumns=40
inDegrees=yes

Units are S.I. units (second, meters, Newtons, ...)
If the header above contains a line with 'inDegrees', this indicates whether rotational values are in degrees (yes) or radians (no).

endheader
time	pelvis_tilt	pelvis_list	pelvis_rotation	pelvis_tx	pelvis_ty	pelvis_tz	hip_flexion_r	hip_adduction_r	hip_rotation_r	knee_angle_r	knee_angle_r_beta	ankle_angle_r	subtalar_angle_r	mtp_angle_r	hip_flexion_l	hip_adduction_l	hip_rotation_l	knee_angle_l	knee_angle_l_beta	ankle_angle_l	subtalar_angle_l	mtp_angle_l	lumbar_extension	lumbar_bending	lumbar_rotation	arm_flex_r	arm_add_r	arm_rot_r	elbow_flex_r	pro_sup_r	wrist_flex_r	wrist_dev_r	arm_flex_l	arm_add_l	arm_rot_l	elbow_flex_l	pro_sup_l	wrist_flex_l	wrist_dev_l
      3.80000000	    -39.09570991	      3.56634243	      5.75389482	     -0.44062519	      0.60877893	     -0.91967536	    104.89671126	    -19.12088448	     13.70375272	    103.06142570	      1.79876121	     38.68091204	      0.00000000	      0.00000000	    105.43871566	     -9.24218753	      1.07437641	     99.44940989	      1.73571964	     32.82373675	      0.00000000	      0.00000000	    -32.18323558	     -2.94853444	     -3.16706924	    -29.22498200	    -56.32503407	     29.01537596	    106.15816525	     88.12342517	      0.00000000	      0.00000000	     -0.36231682	    -66.89318675	     59.65079252	    109.75097022	     88.14274474	      0.00000000	      0.00000000
      3.80500000	    -39.16482661	      3.54978617	      5.76310115	     -0.44077026	      0.60873729	     -0.91974614	    104.95260768	    -19.10454150	     13.72233258	    103.03108750	      1.79823171	     38.71333109	      0.00000000	      0.00000000	    105.50674988	     -9.21829845	      1.08609267	     99.41599049	      1.73513636	     32.79608279	      0.00000000	      0.00000000	    -32.19546449	     -2.94484640	     -1.66365591	    -32.92181372	    -55.03495377	     25.13090493	    106.35051302	     88.13803009	      0.00000000	      0.00000000	      6.14410721	    -66.82420374	     66.22872178	    109.52661175	     88.12011040	      0.00000000	      0.00000000
      3.81000000	    -39.23895633	      3.59194455	      5.79519836	     -0.44080829	      0.60875692	     -0.91992716	    105.02861451	    -19.12900788	     13.79356233	    102.99541291	      1.79760907	     38.74667845	      0.00000000	      0.00000000	    105.54015805	     -9.15944450	      1.04241792	     99.37958513	      1.73450097	     32.81223678	      0.00000000	      0.00000000	    -32.19543684	     -2.94021658	     -1.81485415	    -32.73667844	    -55.12383179	     25.35393028	    106.35941646	     88.12852087	      0.00000000	      0.00000000	      5.54489223	    -66.81261089	     65.59660773	    109.52587866	     88.13027911	      0.00000000	      0.00000000
      3.81500000	    -39.35484981	      3.71158840	      5.77760309	     -0.44088684	      0.60877973	     -0.91992517	    105.19055870	    -19.05253888	     13.95908113	    102.96185897	      1.79702344	     38.61103662	      0.00000000	      0.00000000	    105.57815211	     -9.20298177	      0.90653429	     99.33098389	      1.73365272	     32.87874223	      0.00000000	      0.00000000	    -32.17258168	     -3.03981284	     -2.76600143	    -30.56698156	    -55.89767873	     27.59387462	    106.26019623	     88.14562180	      0.00000000	      0.00000000	      1.45239004	    -66.89503627	     61.43036484	    109.69838472	     88.14796808	      0.00000000	      0.00000000
      3.82000000	    -39.40180080	      3.76157974	      5.71268088	     -0.44091026	      0.60893207	     -0.91984320	    105.20618603	    -18.96026707	     13.99703661	    102.89775098	      1.79590455	     38.66354582	      0.00000000	      0.00000000	    105.56803351	     -9.25178393	      0.88527261	     99.28130849	      1.73278572	     32.85025643	      0.00000000	      0.00000000	    -32.17822241	     -3.14074736	     -1.76009586	    -32.72259117	    -55.07566863	     25.36693873	    106.34226383	     88.13446617	      0.00000000	      0.00000000	      6.08460236	    -66.84675053	     66.20975656	    109.49383994	     88.12662131	      0.00000000	      0.00000000
      3.82500000	    -39.59267686	      3.79914224	      5.89498661	     -0.44121905	      0.60894053	     -0.92048260	    105.43427984	    -19.14111389	     14.14563939	    102.84202966	      1.79493203	     38.66485296	      0.00000000	      0.00000000	    105.70964086	     -9.01155337	      0.78091543	     99.17966533	      1.73101171	     32.80823221	      0.00000000	      0.00000000	    -32.10624299	     -3.00636387	     -2.43201056	    -31.95252352	    -55.45220845	     26.00256024	    106.43216043	     88.12992735	      0.00000000	      0.00000000	      3.35031588	    -66.81939493	     63.37391553	    109.52512181	     88.16064190	      0.00000000	      0.00000000
      3.83000000	    -39.80969937	      3.80101765	      5.95417538	     -0.44148456	      0.60898581	     -0.92055011	    105.64130250	    -19.15890081	     14.17912458	    102.76191756	      1.79353381	     38.54604805	      0.00000000	      0.00000000	    105.87565539	     -8.91602977	      0.78708272	     99.05469143	      1.72883051	     32.77337133	      0.00000000	      0.00000000	    -31.87393911	     -3.01991349	     -2.74641167	    -30.85352913	    -55.79751106	     27.35153343	    106.26530349	     88.13631848	      0.00000000	      0.00000000	      2.66797428	    -66.85086155	     62.81941930	    109.54038128	     88.13386600	      0.00000000	      0.00000000
      3.83500000	    -39.94614901	      3.83116961	      5.95544330	     -0.44163570	      0.60915239	     -0.92046043	    105.75628705	    -19.13894841	     14.18814246	    102.67825265	      1.79207358	     38.60351588	      0.00000000	      0.00000000	    105.94277546	     -8.90657308	      0.76119197	     98.95232169	      1.72704382	     32.82616994	      0.00000000	      0.00000000	    -31.79063956	     -3.05289295	     -3.40577477	    -29.15509831	    -56.35356064	     29.17422905	    106.20423014	     88.13111203	      0.00000000	      0.00000000	     -0.04360712	    -66.90921350	     60.09567166	    109.67491498	     88.14224501	      0.00000000	      0.00000000
      3.84000000	    -40.05149440	      3.90654331	      6.04223144	     -0.44170858	      0.60950710	     -0.92074252	    105.84023366	    -19.20278838	     14.32309630	    102.58720335	      1.79048447	     38.54350200	      0.00000000	      0.00000000	    105.94938370	     -8.77072749	      0.67407312	     98.82321178	      1.72479042	     32.80900438	      0.00000000	      0.00000000	    -31.76110342	     -3.09290719	     -2.13235325	    -32.40655154	    -55.16051070	     25.71692665	    106.28594355	     88.13828761	      0.00000000	      0.00000000	      6.05095779	    -66.81107133	     66.29340617	    109.35452909	     88.12288711	      0.00000000	      0.00000000
      3.84500000	    -40.15893187	      4.10352643	      6.06732041	     -0.44157308	      0.60996104	     -0.92084059	    105.95772255	    -19.18412185	     14.54724126	    102.49644823	      1.78890049	     38.50268076	      0.00000000	      0.00000000	    105.87590060	     -8.72596205	      0.48358138	     98.70937477	      1.72280359	     32.80838420	      0.00000000	      0.00000000	    -31.75826794	     -3.26650012	     -3.19966763	    -30.03650874	    -55.89684209	     28.15369457	    106.11553400	     88.14161907	      0.00000000	      0.00000000	      1.63554534	    -66.91194959	     61.73358840	    109.55036838	     88.13021415	      0.00000000	      0.00000000
      3.85000000	    -40.19941055	      4.14823992	      6.16455012	     -0.44146433	      0.61065461	     -0.92104635	    105.93594572	    -19.29779236	     14.57974697	    102.39153541	      1.78706942	     38.48719064	      0.00000000	      0.00000000	    105.78622396	     -8.55630550	      0.43788657	     98.53669436	      1.71978975	     32.78444385	      0.00000000	      0.00000000	    -31.78113164	     -3.27239383	     -2.40826815	    -31.94938251	    -55.19247629	     26.16524365	    106.18054604	     88.13270462	      0.00000000	      0.00000000	      5.98014729	    -66.85871243	     66.22319528	    109.36983083	     88.12807468	      0.00000000	      0.00000000
      3.85500000	    -40.24042602	      4.30177219	      5.99165681	     -0.44102692	      0.61128730	     -0.92061491	    105.89501719	    -19.08488339	     14.66348585	    102.26190522	      1.78480695	     38.50424839	      0.00000000	      0.00000000	    105.65270013	     -8.75151136	      0.34044434	     98.46285622	      1.71850103	     32.87800417	      0.00000000	      0.00000000	    -31.79223348	     -3.51979865	     -2.67541672	    -30.85610773	    -55.41099200	     27.29060537	    105.98738078	     88.13370845	      0.00000000	      0.00000000	      4.51248469	    -66.90629035	     64.73024795	    109.36355360	     88.12675088	      0.00000000	      0.00000000
      3.86000000	    -40.32753979	      4.24808489	      6.12054959	     -0.44110230	      0.61190728	     -0.92072861	    105.89359739	    -19.21032273	     14.61707648	    102.15111700	      1.78287333	     38.51836983	      0.00000000	      0.00000000	    105.66396000	     -8.55018399	      0.40406685	     98.30268233	      1.71570547	     32.84814642	      0.00000000	      0.00000000	    -31.78959407	     -3.38872018	     -3.13411013	    -30.09032547	    -55.69575376	     27.96549512	    105.98584079	     88.13618699	      0.00000000	      0.00000000	      2.42634736	    -66.96915586	     62.41933876	    109.55092430	     88.16539900	      0.00000000	      0.00000000
      3.86500000	    -40.52224948	      4.40974684	      6.27527382	     -0.44113263	      0.61256979	     -0.92116565	    106.07750245	    -19.34664757	     14.83078649	    102.01125296	      1.78043224	     38.59222342	      0.00000000	      0.00000000	    105.66013592	     -8.32731964	      0.21101341	     98.07867278	      1.71179577	     32.90169093	      0.00000000	      0.00000000	    -31.64273974	     -3.47991718	     -3.43776275	    -29.65490398	    -55.73918744	     28.40651572	    105.81617828	     88.10285763	      0.00000000	      0.00000000	      1.92878104	    -66.91318798	     61.90134239	    109.46607946	     88.16528468	      0.00000000	      0.00000000
